<?xml version="1.0" encoding="UTF-8" standalone="no"?>
<!DOCTYPE svg PUBLIC "-//W3C//DTD SVG 1.1//EN"
 "http://www.w3.org/Graphics/SVG/1.1/DTD/svg11.dtd">
<!-- Generated by graphviz version 6.0.2 (20221011.1828)
 -->
<!-- Title: G Pages: 1 -->
<svg width="783pt" height="770pt"
 viewBox="0.00 0.00 782.81 769.90" xmlns="http://www.w3.org/2000/svg" xmlns:xlink="http://www.w3.org/1999/xlink">
<g id="graph0" class="graph" transform="scale(1 1) rotate(0) translate(36 733.9)">
<title>G</title>
<polygon fill="white" stroke="none" points="-36,36 -36,-733.9 746.81,-733.9 746.81,36 -36,36"/>
<!-- root -->
<g id="node1" class="node">
<title>root</title>
<image xlink:href="img/cn2.svg" width="42px" height="32px" preserveAspectRatio="xMinYMin meet" x="335.5" y="-364.952"/>
</g>
<!-- l21 -->
<g id="node2" class="node">
<title>l21</title>
<image xlink:href="img/n32.svg" width="58px" height="51px" preserveAspectRatio="xMinYMin meet" x="381.5" y="-467.983"/>
</g>
<!-- root&#45;&#45;l21 -->
<g id="edge1" class="edge">
<title>root&#45;&#45;l21</title>
<path fill="none" stroke="black" d="M366.91,-366.99C375.06,-381.11 386.51,-400.93 395.63,-416.72"/>
</g>
<!-- l22 -->
<g id="node3" class="node">
<title>l22</title>
<image xlink:href="img/n32.svg" width="58px" height="51px" preserveAspectRatio="xMinYMin meet" x="219.5" y="-374.452"/>
</g>
<!-- root&#45;&#45;l22 -->
<g id="edge14" class="edge">
<title>root&#45;&#45;l22</title>
<path fill="none" stroke="black" d="M329.25,-348.95C313.5,-348.95 293.69,-348.95 277.64,-348.95"/>
</g>
<!-- l23 -->
<g id="node4" class="node">
<title>l23</title>
<image xlink:href="img/n32.svg" width="58px" height="51px" preserveAspectRatio="xMinYMin meet" x="381.5" y="-280.921"/>
</g>
<!-- root&#45;&#45;l23 -->
<g id="edge27" class="edge">
<title>root&#45;&#45;l23</title>
<path fill="none" stroke="black" d="M366.91,-330.92C375.06,-316.8 386.51,-296.97 395.63,-281.18"/>
</g>
<!-- l31 -->
<g id="node5" class="node">
<title>l31</title>
<image xlink:href="img/n92.svg" width="58px" height="51px" preserveAspectRatio="xMinYMin meet" x="530.474" y="-448.328"/>
</g>
<!-- l21&#45;&#45;l31 -->
<g id="edge2" class="edge">
<title>l21&#45;&#45;l31</title>
<path fill="none" stroke="black" d="M439.58,-438.65C465.83,-435.18 504.24,-430.11 530.47,-426.65"/>
</g>
<!-- l32 -->
<g id="node6" class="node">
<title>l32</title>
<image xlink:href="img/n92.svg" width="58px" height="51px" preserveAspectRatio="xMinYMin meet" x="435.5" y="-561.513"/>
</g>
<!-- l21&#45;&#45;l32 -->
<g id="edge6" class="edge">
<title>l21&#45;&#45;l32</title>
<path fill="none" stroke="black" d="M425.26,-468.04C432.88,-481.24 442.15,-497.29 449.76,-510.49"/>
</g>
<!-- l33 -->
<g id="node7" class="node">
<title>l33</title>
<image xlink:href="img/n92.svg" width="58px" height="51px" preserveAspectRatio="xMinYMin meet" x="289.992" y="-587.17"/>
</g>
<!-- l21&#45;&#45;l33 -->
<g id="edge10" class="edge">
<title>l21&#45;&#45;l33</title>
<path fill="none" stroke="black" d="M390.87,-468.05C375.43,-488.16 354.02,-516.04 338.59,-536.14"/>
</g>
<!-- l34 -->
<g id="node8" class="node">
<title>l34</title>
<image xlink:href="img/n92.svg" width="58px" height="51px" preserveAspectRatio="xMinYMin meet" x="162.034" y="-513.294"/>
</g>
<!-- l22&#45;&#45;l34 -->
<g id="edge15" class="edge">
<title>l22&#45;&#45;l34</title>
<path fill="none" stroke="black" d="M237.83,-374.74C227.5,-399.68 211.95,-437.25 201.65,-462.14"/>
</g>
<!-- l35 -->
<g id="node9" class="node">
<title>l35</title>
<image xlink:href="img/n92.svg" width="58px" height="51px" preserveAspectRatio="xMinYMin meet" x="111.5" y="-374.452"/>
</g>
<!-- l22&#45;&#45;l35 -->
<g id="edge19" class="edge">
<title>l22&#45;&#45;l35</title>
<path fill="none" stroke="black" d="M219.27,-348.95C203.91,-348.95 185.12,-348.95 169.75,-348.95"/>
</g>
<!-- l36 -->
<g id="node10" class="node">
<title>l36</title>
<image xlink:href="img/n92.svg" width="58px" height="51px" preserveAspectRatio="xMinYMin meet" x="162.034" y="-235.61"/>
</g>
<!-- l22&#45;&#45;l36 -->
<g id="edge23" class="edge">
<title>l22&#45;&#45;l36</title>
<path fill="none" stroke="black" d="M237.83,-323.16C227.5,-298.22 211.95,-260.65 201.65,-235.76"/>
</g>
<!-- l37 -->
<g id="node11" class="node">
<title>l37</title>
<image xlink:href="img/n92.svg" width="58px" height="51px" preserveAspectRatio="xMinYMin meet" x="289.992" y="-161.733"/>
</g>
<!-- l23&#45;&#45;l37 -->
<g id="edge28" class="edge">
<title>l23&#45;&#45;l37</title>
<path fill="none" stroke="black" d="M390.87,-229.85C375.43,-209.74 354.02,-181.86 338.59,-161.76"/>
</g>
<!-- l38 -->
<g id="node12" class="node">
<title>l38</title>
<image xlink:href="img/n92.svg" width="58px" height="51px" preserveAspectRatio="xMinYMin meet" x="435.5" y="-187.39"/>
</g>
<!-- l23&#45;&#45;l38 -->
<g id="edge32" class="edge">
<title>l23&#45;&#45;l38</title>
<path fill="none" stroke="black" d="M425.26,-229.86C432.88,-216.67 442.15,-200.61 449.76,-187.42"/>
</g>
<!-- l39 -->
<g id="node13" class="node">
<title>l39</title>
<image xlink:href="img/n92.svg" width="58px" height="51px" preserveAspectRatio="xMinYMin meet" x="530.474" y="-300.575"/>
</g>
<!-- l23&#45;&#45;l39 -->
<g id="edge36" class="edge">
<title>l23&#45;&#45;l39</title>
<path fill="none" stroke="black" d="M439.58,-259.26C465.83,-262.72 504.24,-267.79 530.47,-271.25"/>
</g>
<!-- l411 -->
<g id="node14" class="node">
<title>l411</title>
<image xlink:href="img/n812.svg" width="65px" height="51px" preserveAspectRatio="xMinYMin meet" x="645.809" y="-412.066"/>
</g>
<!-- l31&#45;&#45;l411 -->
<g id="edge3" class="edge">
<title>l31&#45;&#45;l411</title>
<path fill="none" stroke="black" d="M588.54,-413.96C605.86,-408.67 627.88,-401.96 645.77,-396.49"/>
</g>
<!-- l412 -->
<g id="node15" class="node">
<title>l412</title>
<image xlink:href="img/n812.svg" width="65px" height="51px" preserveAspectRatio="xMinYMin meet" x="628.46" y="-485.266"/>
</g>
<!-- l31&#45;&#45;l412 -->
<g id="edge4" class="edge">
<title>l31&#45;&#45;l412</title>
<path fill="none" stroke="black" d="M588.56,-433.41C600.97,-437.93 615.52,-443.23 628.31,-447.88"/>
</g>
<!-- l413 -->
<g id="node16" class="node">
<title>l413</title>
<image xlink:href="img/n812.svg" width="65px" height="51px" preserveAspectRatio="xMinYMin meet" x="594.698" y="-552.493"/>
</g>
<!-- l31&#45;&#45;l413 -->
<g id="edge5" class="edge">
<title>l31&#45;&#45;l413</title>
<path fill="none" stroke="black" d="M576.21,-448.58C586.63,-464.6 599.99,-485.14 610.42,-501.18"/>
</g>
<!-- l414 -->
<g id="node17" class="node">
<title>l414</title>
<image xlink:href="img/n812.svg" width="65px" height="51px" preserveAspectRatio="xMinYMin meet" x="546.342" y="-610.121"/>
</g>
<!-- l32&#45;&#45;l414 -->
<g id="edge7" class="edge">
<title>l32&#45;&#45;l414</title>
<path fill="none" stroke="black" d="M493.65,-548.4C509.66,-555.21 529.57,-563.67 546.11,-570.71"/>
</g>
<!-- l415 -->
<g id="node18" class="node">
<title>l415</title>
<image xlink:href="img/n812.svg" width="65px" height="51px" preserveAspectRatio="xMinYMin meet" x="486" y="-655.044"/>
</g>
<!-- l32&#45;&#45;l415 -->
<g id="edge8" class="edge">
<title>l32&#45;&#45;l415</title>
<path fill="none" stroke="black" d="M479.26,-561.57C486.88,-574.77 496.15,-590.82 503.76,-604.02"/>
</g>
<!-- l416 -->
<g id="node19" class="node">
<title>l416</title>
<image xlink:href="img/n812.svg" width="65px" height="51px" preserveAspectRatio="xMinYMin meet" x="416.924" y="-684.84"/>
</g>
<!-- l32&#45;&#45;l416 -->
<g id="edge9" class="edge">
<title>l32&#45;&#45;l416</title>
<path fill="none" stroke="black" d="M461.38,-561.57C458.79,-582.73 455.13,-612.66 452.54,-633.82"/>
</g>
<!-- l417 -->
<g id="node20" class="node">
<title>l417</title>
<image xlink:href="img/n812.svg" width="65px" height="51px" preserveAspectRatio="xMinYMin meet" x="342.839" y="-697.904"/>
</g>
<!-- l33&#45;&#45;l417 -->
<g id="edge11" class="edge">
<title>l33&#45;&#45;l417</title>
<path fill="none" stroke="black" d="M332.06,-587.35C341.16,-605.24 353.25,-629 362.34,-646.86"/>
</g>
<!-- l418 -->
<g id="node21" class="node">
<title>l418</title>
<image xlink:href="img/n812.svg" width="65px" height="51px" preserveAspectRatio="xMinYMin meet" x="267.738" y="-693.53"/>
</g>
<!-- l33&#45;&#45;l418 -->
<g id="edge12" class="edge">
<title>l33&#45;&#45;l418</title>
<path fill="none" stroke="black" d="M314.45,-587.42C311.5,-604.14 307.68,-625.85 304.74,-642.52"/>
</g>
<!-- l419 -->
<g id="node22" class="node">
<title>l419</title>
<image xlink:href="img/n812.svg" width="65px" height="51px" preserveAspectRatio="xMinYMin meet" x="195.67" y="-671.954"/>
</g>
<!-- l33&#45;&#45;l419 -->
<g id="edge13" class="edge">
<title>l33&#45;&#45;l419</title>
<path fill="none" stroke="black" d="M291.25,-587.57C279.98,-598.09 266.99,-610.21 255.74,-620.71"/>
</g>
<!-- l421 -->
<g id="node23" class="node">
<title>l421</title>
<image xlink:href="img/n812.svg" width="65px" height="51px" preserveAspectRatio="xMinYMin meet" x="130.521" y="-634.34"/>
</g>
<!-- l34&#45;&#45;l421 -->
<g id="edge16" class="edge">
<title>l34&#45;&#45;l421</title>
<path fill="none" stroke="black" d="M185.09,-513.46C180.34,-534.01 173.7,-562.67 168.95,-583.21"/>
</g>
<!-- l422 -->
<g id="node24" class="node">
<title>l422</title>
<image xlink:href="img/n812.svg" width="65px" height="51px" preserveAspectRatio="xMinYMin meet" x="75.8016" y="-582.715"/>
</g>
<!-- l34&#45;&#45;l422 -->
<g id="edge17" class="edge">
<title>l34&#45;&#45;l422</title>
<path fill="none" stroke="black" d="M161.63,-512.46C154.2,-518.7 146.21,-525.41 138.73,-531.69"/>
</g>
<!-- l423 -->
<g id="node25" class="node">
<title>l423</title>
<image xlink:href="img/n812.svg" width="65px" height="51px" preserveAspectRatio="xMinYMin meet" x="34.463" y="-519.863"/>
</g>
<!-- l34&#45;&#45;l423 -->
<g id="edge18" class="edge">
<title>l34&#45;&#45;l423</title>
<path fill="none" stroke="black" d="M161.95,-489.33C143.32,-490.32 119.12,-491.6 99.81,-492.62"/>
</g>
<!-- l424 -->
<g id="node26" class="node">
<title>l424</title>
<image xlink:href="img/n812.svg" width="65px" height="51px" preserveAspectRatio="xMinYMin meet" x="8.73346" y="-449.171"/>
</g>
<!-- l35&#45;&#45;l424 -->
<g id="edge20" class="edge">
<title>l35&#45;&#45;l424</title>
<path fill="none" stroke="black" d="M111.25,-370.97C99.47,-379.83 85.84,-390.1 73.75,-399.2"/>
</g>
<!-- l425 -->
<g id="node27" class="node">
<title>l425</title>
<image xlink:href="img/n812.svg" width="65px" height="51px" preserveAspectRatio="xMinYMin meet" x="2.84217e-14" y="-374.452"/>
</g>
<!-- l35&#45;&#45;l425 -->
<g id="edge21" class="edge">
<title>l35&#45;&#45;l425</title>
<path fill="none" stroke="black" d="M111.27,-348.95C97.03,-348.95 79.85,-348.95 65.18,-348.95"/>
</g>
<!-- l426 -->
<g id="node28" class="node">
<title>l426</title>
<image xlink:href="img/n812.svg" width="65px" height="51px" preserveAspectRatio="xMinYMin meet" x="8.73346" y="-299.732"/>
</g>
<!-- l35&#45;&#45;l426 -->
<g id="edge22" class="edge">
<title>l35&#45;&#45;l426</title>
<path fill="none" stroke="black" d="M111.25,-326.94C99.47,-318.07 85.84,-307.81 73.75,-298.7"/>
</g>
<!-- l427 -->
<g id="node29" class="node">
<title>l427</title>
<image xlink:href="img/n812.svg" width="65px" height="51px" preserveAspectRatio="xMinYMin meet" x="34.463" y="-229.041"/>
</g>
<!-- l36&#45;&#45;l427 -->
<g id="edge24" class="edge">
<title>l36&#45;&#45;l427</title>
<path fill="none" stroke="black" d="M161.95,-208.57C143.32,-207.58 119.12,-206.3 99.81,-205.28"/>
</g>
<!-- l428 -->
<g id="node30" class="node">
<title>l428</title>
<image xlink:href="img/n812.svg" width="65px" height="51px" preserveAspectRatio="xMinYMin meet" x="75.8016" y="-166.189"/>
</g>
<!-- l36&#45;&#45;l428 -->
<g id="edge25" class="edge">
<title>l36&#45;&#45;l428</title>
<path fill="none" stroke="black" d="M161.63,-185.44C154.2,-179.2 146.21,-172.5 138.73,-166.22"/>
</g>
<!-- l429 -->
<g id="node31" class="node">
<title>l429</title>
<image xlink:href="img/n812.svg" width="65px" height="51px" preserveAspectRatio="xMinYMin meet" x="130.521" y="-114.564"/>
</g>
<!-- l36&#45;&#45;l429 -->
<g id="edge26" class="edge">
<title>l36&#45;&#45;l429</title>
<path fill="none" stroke="black" d="M185.09,-184.44C180.34,-163.9 173.7,-135.23 168.95,-114.7"/>
</g>
<!-- l431 -->
<g id="node32" class="node">
<title>l431</title>
<image xlink:href="img/n812.svg" width="65px" height="51px" preserveAspectRatio="xMinYMin meet" x="195.67" y="-76.9498"/>
</g>
<!-- l37&#45;&#45;l431 -->
<g id="edge29" class="edge">
<title>l37&#45;&#45;l431</title>
<path fill="none" stroke="black" d="M291.25,-110.33C279.98,-99.82 266.99,-87.69 255.74,-77.19"/>
</g>
<!-- l432 -->
<g id="node33" class="node">
<title>l432</title>
<image xlink:href="img/n812.svg" width="65px" height="51px" preserveAspectRatio="xMinYMin meet" x="267.738" y="-55.3741"/>
</g>
<!-- l37&#45;&#45;l432 -->
<g id="edge30" class="edge">
<title>l37&#45;&#45;l432</title>
<path fill="none" stroke="black" d="M314.45,-110.49C311.5,-93.76 307.68,-72.06 304.74,-55.38"/>
</g>
<!-- l433 -->
<g id="node34" class="node">
<title>l433</title>
<image xlink:href="img/n812.svg" width="65px" height="51px" preserveAspectRatio="xMinYMin meet" x="342.839" y="-51"/>
</g>
<!-- l37&#45;&#45;l433 -->
<g id="edge31" class="edge">
<title>l37&#45;&#45;l433</title>
<path fill="none" stroke="black" d="M332.06,-110.55C341.16,-92.66 353.25,-68.9 362.34,-51.04"/>
</g>
<!-- l434 -->
<g id="node35" class="node">
<title>l434</title>
<image xlink:href="img/n812.svg" width="65px" height="51px" preserveAspectRatio="xMinYMin meet" x="416.924" y="-64.0632"/>
</g>
<!-- l38&#45;&#45;l434 -->
<g id="edge33" class="edge">
<title>l38&#45;&#45;l434</title>
<path fill="none" stroke="black" d="M461.38,-136.34C458.79,-115.17 455.13,-85.24 452.54,-64.08"/>
</g>
<!-- l435 -->
<g id="node36" class="node">
<title>l435</title>
<image xlink:href="img/n812.svg" width="65px" height="51px" preserveAspectRatio="xMinYMin meet" x="486" y="-93.8596"/>
</g>
<!-- l38&#45;&#45;l435 -->
<g id="edge34" class="edge">
<title>l38&#45;&#45;l435</title>
<path fill="none" stroke="black" d="M479.26,-136.33C486.88,-123.14 496.15,-107.08 503.76,-93.89"/>
</g>
<!-- l436 -->
<g id="node37" class="node">
<title>l436</title>
<image xlink:href="img/n812.svg" width="65px" height="51px" preserveAspectRatio="xMinYMin meet" x="546.342" y="-138.783"/>
</g>
<!-- l38&#45;&#45;l436 -->
<g id="edge35" class="edge">
<title>l38&#45;&#45;l436</title>
<path fill="none" stroke="black" d="M493.65,-149.5C509.66,-142.69 529.57,-134.23 546.11,-127.2"/>
</g>
<!-- l437 -->
<g id="node38" class="node">
<title>l437</title>
<image xlink:href="img/n812.svg" width="65px" height="51px" preserveAspectRatio="xMinYMin meet" x="594.698" y="-196.411"/>
</g>
<!-- l39&#45;&#45;l437 -->
<g id="edge37" class="edge">
<title>l39&#45;&#45;l437</title>
<path fill="none" stroke="black" d="M576.21,-249.33C586.63,-233.3 599.99,-212.76 610.42,-196.72"/>
</g>
<!-- l438 -->
<g id="node39" class="node">
<title>l438</title>
<image xlink:href="img/n812.svg" width="65px" height="51px" preserveAspectRatio="xMinYMin meet" x="628.46" y="-263.637"/>
</g>
<!-- l39&#45;&#45;l438 -->
<g id="edge38" class="edge">
<title>l39&#45;&#45;l438</title>
<path fill="none" stroke="black" d="M588.56,-264.49C600.97,-259.97 615.52,-254.68 628.31,-250.02"/>
</g>
<!-- l439 -->
<g id="node40" class="node">
<title>l439</title>
<image xlink:href="img/n812.svg" width="65px" height="51px" preserveAspectRatio="xMinYMin meet" x="645.809" y="-336.838"/>
</g>
<!-- l39&#45;&#45;l439 -->
<g id="edge39" class="edge">
<title>l39&#45;&#45;l439</title>
<path fill="none" stroke="black" d="M588.54,-283.95C605.86,-289.23 627.88,-295.95 645.77,-301.41"/>
</g>
</g>
</svg>
