<?xml version="1.0" standalone="no"?>
<!DOCTYPE svg PUBLIC "-//W3C//DTD SVG 20010904//EN"
 "http://www.w3.org/TR/2001/REC-SVG-20010904/DTD/svg10.dtd">
<svg version="1.0" xmlns="http://www.w3.org/2000/svg"
 width="700.000000pt" height="700.000000pt" viewBox="0 0 700.000000 700.000000"
 preserveAspectRatio="xMidYMid meet">
<metadata>
Created by potrace 1.14, written by Peter Selinger 2001-2017
</metadata>
<g transform="translate(0.000000,700.000000) scale(0.100000,-0.100000)"
fill="#000000" stroke="none">
<path d="M3395 6720 c-55 -32 -116 -67 -135 -78 -19 -10 -195 -112 -390 -224
-710 -411 -866 -501 -900 -520 -19 -11 -75 -44 -125 -73 -49 -29 -110 -64
-135 -78 -25 -13 -146 -83 -270 -155 -124 -72 -299 -173 -390 -226 -91 -52
-203 -117 -250 -145 -47 -28 -97 -56 -112 -62 -27 -11 -28 -13 -29 -92 -4
-747 1 -3212 8 -3214 5 -2 87 -49 183 -104 96 -56 191 -110 210 -121 19 -11
40 -24 45 -28 6 -4 35 -21 65 -37 30 -17 130 -73 222 -127 92 -53 170 -96 173
-96 2 0 6 311 7 691 l3 691 215 125 c221 128 408 236 470 270 19 11 70 41 113
67 43 25 80 46 83 46 2 0 28 16 58 35 30 19 57 35 60 35 2 0 51 28 108 62 56
33 121 71 143 83 39 21 334 191 405 234 19 11 51 29 70 40 34 18 1150 662
1180 680 8 5 76 44 150 87 74 42 137 79 140 81 3 3 5 334 5 736 l1 732 -25 23
c-13 12 -35 25 -48 28 -13 4 -23 10 -23 15 0 5 -4 9 -9 9 -5 0 -134 73 -287
161 -674 390 -881 509 -886 508 -2 0 -48 -27 -103 -59z m238 -1066 c73 -42
144 -85 159 -95 15 -11 31 -19 36 -19 5 0 16 -7 23 -17 11 -12 14 -59 14 -199
l0 -183 -134 -78 c-74 -43 -139 -80 -144 -82 -6 -2 -45 -25 -89 -52 -44 -27
-82 -49 -84 -49 -3 0 -49 -26 -102 -58 -53 -32 -104 -61 -112 -65 -8 -4 -22
-11 -30 -17 -45 -30 -693 -400 -701 -400 -5 0 -9 -4 -9 -10 0 -5 -4 -10 -8
-10 -5 0 -134 -73 -288 -161 -153 -89 -295 -171 -314 -182 -19 -11 -48 -28
-65 -38 -16 -11 -37 -22 -45 -26 -8 -4 -48 -26 -88 -50 -40 -24 -75 -43 -77
-43 -3 0 -5 179 -5 398 l0 397 208 119 c114 66 277 160 362 209 85 50 238 138
340 197 102 58 277 160 390 225 113 65 223 128 245 141 22 12 117 67 210 122
94 55 171 100 173 101 2 1 62 -33 135 -75z"/>
<path d="M5428 4969 l-3 -693 -170 -98 c-419 -241 -521 -300 -535 -309 -15 -9
-350 -202 -575 -331 -66 -38 -127 -73 -135 -78 -16 -11 -216 -126 -283 -164
-23 -13 -82 -47 -132 -76 -49 -29 -108 -62 -130 -75 -22 -12 -80 -46 -130 -75
-49 -29 -104 -61 -121 -70 -17 -10 -123 -71 -235 -136 -112 -64 -217 -124
-232 -133 -16 -9 -36 -20 -46 -26 -9 -5 -120 -70 -247 -143 l-230 -134 0 -733
c1 -476 5 -737 11 -743 6 -5 30 -21 55 -35 45 -25 216 -124 543 -313 98 -57
181 -104 184 -104 3 0 17 -8 31 -19 15 -10 47 -29 72 -43 25 -14 120 -69 212
-122 133 -76 172 -94 185 -86 10 5 142 81 293 168 151 87 441 255 645 372 203
117 383 221 400 231 16 10 37 22 45 26 8 4 62 35 120 68 58 34 238 139 400
232 162 94 311 180 330 192 19 11 42 24 50 28 8 4 65 36 125 71 61 36 128 75
150 87 22 13 81 47 130 76 50 28 100 57 112 63 21 10 23 18 23 96 1 98 1 3117
0 3170 0 25 -6 38 -19 45 -21 11 -164 92 -193 110 -9 5 -29 17 -45 26 -15 8
-162 93 -326 188 -164 95 -305 175 -313 178 -12 4 -14 -95 -16 -688z m2 -2186
l0 -398 -173 -99 c-94 -55 -246 -143 -337 -196 -91 -53 -172 -99 -180 -103 -8
-4 -29 -15 -45 -26 -28 -16 -385 -223 -465 -269 -19 -11 -120 -69 -225 -129
-104 -61 -261 -151 -347 -201 l-158 -91 -167 96 c-93 53 -175 102 -183 110
-12 11 -15 47 -15 197 l0 184 325 188 c179 103 377 218 440 254 145 85 187
109 225 130 17 9 41 23 55 31 14 9 131 77 260 152 129 74 251 144 270 156 19
11 52 30 72 41 21 11 120 68 220 127 101 58 201 116 223 129 22 12 74 42 115
67 41 25 78 46 83 46 4 1 7 -178 7 -396z"/>
</g>
</svg>
