<?xml version="1.0" encoding="UTF-8"?>
<!-- Created with Inkscape (http://www.inkscape.org/) -->
<svg width="70" height="70" version="1.1" viewBox="0 0 18.521 18.521" xmlns="http://www.w3.org/2000/svg">
 <defs>
  <clipPath id="clipPath1946">
   <path class="powerclip" d="m-18.229-5h23.229v23.229h-23.229zm8.7042 7.6458c-0.58632 0-1.0583 0.47202-1.0583 1.0583v5.8208c0 0.58632 0.47202 1.0583 1.0583 1.0583h5.8208c0.58632 0 1.0583-0.47202 1.0583-1.0583v-5.8208c0-0.58632-0.47202-1.0583-1.0583-1.0583z" fill-opacity="0"/>
  </clipPath>
  <clipPath id="clipath_lpe_path-effect2010">
   <rect x="-10.583" y="2.6458" width="7.9375" height="7.9375" rx="1.0583" ry="1.0583" d="m -9.5249997,2.6458333 h 5.8208334 c 0.5863166,0 1.0583333,0.4720166 1.0583333,1.0583332 V 9.525 c 0,0.586317 -0.4720167,1.058333 -1.0583333,1.058333 h -5.8208334 c -0.5863163,0 -1.0583333,-0.472016 -1.0583333,-1.058333 V 3.7041665 c 0,-0.5863166 0.472017,-1.0583332 1.0583333,-1.0583332 z" display="none" fill-opacity="0"/>
   <path class="powerclip" d="m-18.229-5h23.229v23.229h-23.229zm8.7042 7.6458c-0.58632 0-1.0583 0.47202-1.0583 1.0583v5.8208c0 0.58632 0.47202 1.0583 1.0583 1.0583h5.8208c0.58632 0 1.0583-0.47202 1.0583-1.0583v-5.8208c0-0.58632-0.47202-1.0583-1.0583-1.0583z" fill-opacity="0"/>
  </clipPath>
 </defs>
 <g>
  <path transform="scale(-1,1)" d="m-10.583 0h7.9375c1.4658 0 2.6458 1.18 2.6458 2.6458v7.9375c0 1.4658-1.18 2.6458-2.6458 2.6458h-7.9375c-1.4658 0-2.6458-1.18-2.6458-2.6458v-7.9375c0-1.4658 1.18-2.6458 2.6458-2.6458z" clip-path="url(#clipPath1946)" fill="#33a0b8"/>
  <rect x="-2.2204e-16" y="13.229" width="2.6458" height="5.2917" rx="1.3229" ry="1.3229" fill="#33a0b8"/>
  <rect x="15.875" y="6.6912e-7" width="2.6458" height="5.2917" rx="1.3229" ry="1.3229" fill="#33b880"/>
  <path transform="matrix(-1 0 0 1 5.2917 5.2917)" x="-13.229167" y="-1.110223e-16" width="13.229167" height="13.229167" rx="2.6458333" ry="2.6458333" d="m-10.583 0h7.9375c1.4658 0 2.6458 1.18 2.6458 2.6458v7.9375c0 1.4658-1.18 2.6458-2.6458 2.6458h-7.9375c-1.4658 0-2.6458-1.18-2.6458-2.6458v-7.9375c0-1.4658 1.18-2.6458 2.6458-2.6458z" clip-path="url(#clipath_lpe_path-effect2010)" fill="#33b880"/>
  <rect x="10.583" y="4.7556" width="2.6458" height="3.6655" fill="#33a0b8"/>
 </g>
</svg>
